<!DOCTYPE svg PUBLIC "-//W3C//DTD SVG 1.1//EN" "http://www.w3.org/Graphics/SVG/1.1/DTD/svg11.dtd">
<!-- Uploaded to: SVG Repo, www.svgrepo.com, Transformed by: SVG Repo Mixer Tools -->
<svg width="800px" height="800px" viewBox="0 0 48 48" enable-background="new 0 0 48 48" id="_x3C_Layer_x3E_" version="1.1" xml:space="preserve" xmlns="http://www.w3.org/2000/svg" xmlns:xlink="http://www.w3.org/1999/xlink" fill="#000000">
<g id="SVGRepo_bgCarrier" stroke-width="0"/>
<g id="SVGRepo_tracerCarrier" stroke-linecap="round" stroke-linejoin="round"/>
<g id="SVGRepo_iconCarrier"> <g id="envelope_x2C__delivered_letter"> <path d="M43.5,40.5h-39c-1.104,0-2-0.896-2-2V13.375C2.5,10.683,4.683,8.5,7.375,8.5h33.25 c2.692,0,4.875,2.183,4.875,4.875V38.5C45.5,39.604,44.604,40.5,43.5,40.5z" fill="#73A1FB"/> <path d="M43.5,41h-39C3.121,41,2,39.878,2,38.5V16c0-0.276,0.224-0.5,0.5-0.5S3,15.724,3,16v22.5 C3,39.327,3.673,40,4.5,40h39c0.827,0,1.5-0.673,1.5-1.5V13.375C45,10.962,43.037,9,40.625,9H7.375c-0.276,0-0.5-0.224-0.5-0.5 S7.099,8,7.375,8h33.25C43.589,8,46,10.411,46,13.375V38.5C46,39.878,44.879,41,43.5,41z" fill="#385C8E"/> <path d="M45,40.205c-0.119,0-0.239-0.042-0.334-0.128L26.365,23.615c-1.203-0.827-2.951-0.827-4.204,0.04 c-0.226,0.156-0.539,0.102-0.695-0.126c-0.157-0.227-0.101-0.539,0.127-0.696c1.611-1.115,3.779-1.115,5.391,0l18.351,16.501 c0.206,0.185,0.223,0.5,0.038,0.706C45.273,40.149,45.137,40.205,45,40.205z" fill="#385C8E"/> <path d="M3.288,40.205c-0.137,0-0.273-0.056-0.372-0.166c-0.185-0.206-0.168-0.521,0.038-0.706l18.301-16.462 c1.661-1.155,3.829-1.156,5.44-0.04c0.228,0.157,0.284,0.469,0.127,0.696s-0.469,0.282-0.695,0.126 c-1.252-0.866-3.002-0.866-4.254,0L3.622,40.077C3.527,40.163,3.407,40.205,3.288,40.205z" fill="#385C8E"/> <path d="M3.5,35.885c-0.276,0-0.5-0.224-0.5-0.5V17c0-0.276,0.224-0.5,0.5-0.5S4,16.724,4,17v18.385 C4,35.661,3.776,35.885,3.5,35.885z" fill="#FFFFFF"/> <path d="M21.719,29.73L2.5,13.76V10.5c0-1.104,0.896-2,2-2h39c1.104,0,2,0.896,2,2v3.26L26.281,29.73 C24.926,30.757,23.074,30.757,21.719,29.73z" fill="#73A1FB"/> <path d="M3.5,14.787c-0.276,0-0.5-0.224-0.5-0.5V10.5C3,9.673,3.673,9,4.5,9h39C43.776,9,44,9.224,44,9.5 S43.776,10,43.5,10h-39C4.225,10,4,10.224,4,10.5v3.787C4,14.563,3.776,14.787,3.5,14.787z" fill="#F2EBD9"/> <path d="M23.994,31.005c-0.905,0-1.807-0.292-2.577-0.876c-0.006-0.004-0.012-0.009-0.018-0.014L2.181,14.145 C2.066,14.049,2,13.908,2,13.76V10.5C2,9.122,3.121,8,4.5,8h39c1.379,0,2.5,1.122,2.5,2.5v3.26c0,0.148-0.066,0.29-0.181,0.385 L26.601,30.115C25.817,30.708,24.904,31.005,23.994,31.005z M22.029,29.338c1.182,0.89,2.769,0.888,3.95-0.006L45,13.525V10.5 C45,9.673,44.327,9,43.5,9h-39C3.673,9,3,9.673,3,10.5v3.025L22.029,29.338z" fill="#385C8E"/> </g> </g>
</svg>